<svg width="438" height="16" viewBox="0 0 438 16" fill="none" xmlns="http://www.w3.org/2000/svg">
<path d="M7.52344 9.35156H3.11719L2.19531 12H0.140625L4.4375 0.625H6.21094L10.5156 12H8.45312L7.52344 9.35156ZM3.67188 7.75781H6.96875L5.32031 3.03906L3.67188 7.75781ZM19.2069 7.85938C19.2069 9.17188 18.9126 10.2161 18.3241 10.9922C17.7407 11.7682 16.936 12.1562 15.91 12.1562C14.9204 12.1562 14.1496 11.7995 13.5975 11.0859L13.5037 12H11.785V0H13.6834V4.35938C14.2303 3.71354 14.9673 3.39062 15.8944 3.39062C16.9256 3.39062 17.7355 3.77344 18.3241 4.53906C18.9126 5.30469 19.2069 6.375 19.2069 7.75V7.85938ZM17.3084 7.69531C17.3084 6.77865 17.147 6.09115 16.8241 5.63281C16.5011 5.17448 16.0324 4.94531 15.4178 4.94531C14.5949 4.94531 14.0168 5.30469 13.6834 6.02344V9.50781C14.022 10.2422 14.6053 10.6094 15.4334 10.6094C16.0272 10.6094 16.4855 10.388 16.8084 9.94531C17.1314 9.5026 17.298 8.83333 17.3084 7.9375V7.69531ZM20.6091 7.69531C20.6091 6.86719 20.7731 6.1224 21.1012 5.46094C21.4294 4.79427 21.8903 4.28385 22.4841 3.92969C23.0778 3.57031 23.7601 3.39062 24.5309 3.39062C25.6716 3.39062 26.596 3.75781 27.3044 4.49219C28.0179 5.22656 28.4033 6.20052 28.4606 7.41406L28.4684 7.85938C28.4684 8.69271 28.307 9.4375 27.9841 10.0938C27.6664 10.75 27.208 11.2578 26.6091 11.6172C26.0153 11.9766 25.3278 12.1562 24.5466 12.1562C23.3539 12.1562 22.3981 11.7604 21.6794 10.9688C20.9658 10.1719 20.6091 9.11198 20.6091 7.78906V7.69531ZM22.5075 7.85938C22.5075 8.72917 22.6872 9.41146 23.0466 9.90625C23.4059 10.3958 23.9059 10.6406 24.5466 10.6406C25.1872 10.6406 25.6846 10.3906 26.0387 9.89062C26.3981 9.39062 26.5778 8.65885 26.5778 7.69531C26.5778 6.84115 26.3929 6.16406 26.0231 5.66406C25.6585 5.16406 25.1611 4.91406 24.5309 4.91406C23.9111 4.91406 23.419 5.16146 23.0544 5.65625C22.6898 6.14583 22.5075 6.88021 22.5075 7.85938ZM35.355 11.1719C34.7977 11.8281 34.006 12.1562 32.98 12.1562C32.0633 12.1562 31.368 11.888 30.8941 11.3516C30.4253 10.8151 30.1909 10.0391 30.1909 9.02344V3.54688H32.0894V9C32.0894 10.0729 32.5347 10.6094 33.4253 10.6094C34.3472 10.6094 34.9696 10.2786 35.2925 9.61719V3.54688H37.1909V12H35.4019L35.355 11.1719ZM41.6634 1.49219V3.54688H43.1556V4.95312H41.6634V9.67188C41.6634 9.99479 41.7259 10.2292 41.8509 10.375C41.9811 10.5156 42.2103 10.5859 42.5384 10.5859C42.7572 10.5859 42.9785 10.5599 43.2025 10.5078V11.9766C42.7702 12.0964 42.3535 12.1562 41.9525 12.1562C40.4942 12.1562 39.765 11.3516 39.765 9.74219V4.95312H38.3744V3.54688H39.765V1.49219H41.6634ZM75.7678 9.07031C75.7678 8.57031 75.5907 8.1849 75.2366 7.91406C74.8876 7.64323 74.2548 7.36979 73.3381 7.09375C72.4215 6.81771 71.6923 6.51042 71.1506 6.17188C70.1142 5.52083 69.5959 4.67188 69.5959 3.625C69.5959 2.70833 69.9683 1.95312 70.7131 1.35938C71.4631 0.765625 72.4345 0.46875 73.6272 0.46875C74.4189 0.46875 75.1246 0.614583 75.7444 0.90625C76.3642 1.19792 76.8511 1.61458 77.2053 2.15625C77.5595 2.69271 77.7366 3.28906 77.7366 3.94531H75.7678C75.7678 3.35156 75.5803 2.88802 75.2053 2.55469C74.8355 2.21615 74.3043 2.04688 73.6116 2.04688C72.9657 2.04688 72.4631 2.1849 72.1038 2.46094C71.7496 2.73698 71.5725 3.1224 71.5725 3.61719C71.5725 4.03385 71.7652 4.38281 72.1506 4.66406C72.536 4.9401 73.1715 5.21094 74.0569 5.47656C74.9423 5.73698 75.6532 6.03646 76.1897 6.375C76.7261 6.70833 77.1194 7.09375 77.3694 7.53125C77.6194 7.96354 77.7444 8.47135 77.7444 9.05469C77.7444 10.0026 77.3798 10.7578 76.6506 11.3203C75.9267 11.8776 74.9423 12.1562 73.6975 12.1562C72.8746 12.1562 72.1168 12.0052 71.4241 11.7031C70.7366 11.3958 70.2001 10.974 69.8147 10.4375C69.4345 9.90104 69.2444 9.27604 69.2444 8.5625H71.2209C71.2209 9.20833 71.4345 9.70833 71.8616 10.0625C72.2886 10.4167 72.9006 10.5938 73.6975 10.5938C74.385 10.5938 74.9006 10.4557 75.2444 10.1797C75.5933 9.89844 75.7678 9.52865 75.7678 9.07031ZM83.1778 12.1562C81.9747 12.1562 80.9981 11.7786 80.2481 11.0234C79.5033 10.263 79.1309 9.2526 79.1309 7.99219V7.75781C79.1309 6.91406 79.2924 6.16146 79.6153 5.5C79.9434 4.83333 80.4018 4.3151 80.9903 3.94531C81.5789 3.57552 82.2351 3.39062 82.9591 3.39062C84.1101 3.39062 84.9981 3.75781 85.6231 4.49219C86.2533 5.22656 86.5684 6.26562 86.5684 7.60938V8.375H81.045C81.1023 9.07292 81.3341 9.625 81.7403 10.0312C82.1518 10.4375 82.6674 10.6406 83.2872 10.6406C84.157 10.6406 84.8653 10.2891 85.4122 9.58594L86.4356 10.5625C86.0971 11.0677 85.644 11.4609 85.0762 11.7422C84.5137 12.0182 83.8809 12.1562 83.1778 12.1562ZM82.9512 4.91406C82.4304 4.91406 82.0085 5.09635 81.6856 5.46094C81.3679 5.82552 81.1648 6.33333 81.0762 6.98438H84.6934V6.84375C84.6518 6.20833 84.4825 5.72917 84.1856 5.40625C83.8887 5.07812 83.4773 4.91406 82.9512 4.91406ZM92.6347 5.28125C92.3847 5.23958 92.1269 5.21875 91.8613 5.21875C90.9915 5.21875 90.4055 5.55208 90.1034 6.21875V12H88.205V3.54688H90.0175L90.0644 4.49219C90.5227 3.75781 91.1581 3.39062 91.9706 3.39062C92.2415 3.39062 92.4654 3.42708 92.6425 3.5L92.6347 5.28125ZM97.115 9.59375L98.9041 3.54688H100.865L97.9353 12H96.2869L93.3337 3.54688H95.3025L97.115 9.59375ZM104.236 12H102.338V3.54688H104.236V12ZM102.22 1.35156C102.22 1.0599 102.311 0.817708 102.494 0.625C102.681 0.432292 102.947 0.335938 103.291 0.335938C103.634 0.335938 103.9 0.432292 104.088 0.625C104.275 0.817708 104.369 1.0599 104.369 1.35156C104.369 1.63802 104.275 1.8776 104.088 2.07031C103.9 2.25781 103.634 2.35156 103.291 2.35156C102.947 2.35156 102.681 2.25781 102.494 2.07031C102.311 1.8776 102.22 1.63802 102.22 1.35156ZM109.943 10.6406C110.417 10.6406 110.81 10.5026 111.122 10.2266C111.435 9.95052 111.602 9.60938 111.622 9.20312H113.412C113.391 9.72917 113.227 10.2214 112.919 10.6797C112.612 11.1328 112.195 11.4922 111.669 11.7578C111.143 12.0234 110.576 12.1562 109.966 12.1562C108.784 12.1562 107.846 11.7734 107.154 11.0078C106.461 10.2422 106.115 9.1849 106.115 7.83594V7.64062C106.115 6.35417 106.458 5.32552 107.146 4.55469C107.833 3.77865 108.771 3.39062 109.958 3.39062C110.964 3.39062 111.781 3.6849 112.412 4.27344C113.047 4.85677 113.38 5.625 113.412 6.57812H111.622C111.602 6.09375 111.435 5.69531 111.122 5.38281C110.815 5.07031 110.422 4.91406 109.943 4.91406C109.328 4.91406 108.854 5.13802 108.521 5.58594C108.188 6.02865 108.018 6.70312 108.013 7.60938V7.91406C108.013 8.83073 108.177 9.51562 108.505 9.96875C108.839 10.4167 109.318 10.6406 109.943 10.6406ZM118.728 12.1562C117.525 12.1562 116.548 11.7786 115.798 11.0234C115.053 10.263 114.681 9.2526 114.681 7.99219V7.75781C114.681 6.91406 114.842 6.16146 115.165 5.5C115.493 4.83333 115.952 4.3151 116.54 3.94531C117.129 3.57552 117.785 3.39062 118.509 3.39062C119.66 3.39062 120.548 3.75781 121.173 4.49219C121.803 5.22656 122.118 6.26562 122.118 7.60938V8.375H116.595C116.652 9.07292 116.884 9.625 117.29 10.0312C117.702 10.4375 118.217 10.6406 118.837 10.6406C119.707 10.6406 120.415 10.2891 120.962 9.58594L121.986 10.5625C121.647 11.0677 121.194 11.4609 120.626 11.7422C120.064 12.0182 119.431 12.1562 118.728 12.1562ZM118.501 4.91406C117.98 4.91406 117.559 5.09635 117.236 5.46094C116.918 5.82552 116.715 6.33333 116.626 6.98438H120.243V6.84375C120.202 6.20833 120.033 5.72917 119.736 5.40625C119.439 5.07812 119.027 4.91406 118.501 4.91406ZM128.497 9.70312C128.497 9.36458 128.357 9.10677 128.075 8.92969C127.799 8.7526 127.338 8.59635 126.692 8.46094C126.047 8.32552 125.508 8.15365 125.075 7.94531C124.127 7.48698 123.653 6.82292 123.653 5.95312C123.653 5.22396 123.961 4.61458 124.575 4.125C125.19 3.63542 125.971 3.39062 126.919 3.39062C127.929 3.39062 128.745 3.64062 129.364 4.14062C129.989 4.64062 130.302 5.28906 130.302 6.08594H128.403C128.403 5.72135 128.268 5.41927 127.997 5.17969C127.726 4.9349 127.367 4.8125 126.919 4.8125C126.502 4.8125 126.161 4.90885 125.896 5.10156C125.635 5.29427 125.505 5.55208 125.505 5.875C125.505 6.16667 125.627 6.39323 125.872 6.55469C126.117 6.71615 126.612 6.88021 127.357 7.04688C128.101 7.20833 128.685 7.40365 129.107 7.63281C129.534 7.85677 129.849 8.1276 130.052 8.44531C130.26 8.76302 130.364 9.14844 130.364 9.60156C130.364 10.362 130.049 10.9792 129.419 11.4531C128.789 11.9219 127.963 12.1562 126.942 12.1562C126.25 12.1562 125.633 12.0312 125.091 11.7812C124.549 11.5312 124.127 11.1875 123.825 10.75C123.523 10.3125 123.372 9.84115 123.372 9.33594H125.216C125.242 9.78385 125.411 10.1302 125.724 10.375C126.036 10.6146 126.45 10.7344 126.966 10.7344C127.466 10.7344 127.846 10.6406 128.107 10.4531C128.367 10.2604 128.497 10.0104 128.497 9.70312ZM159.211 7.77344V12H157.234V0.625H161.586C162.857 0.625 163.865 0.955729 164.609 1.61719C165.359 2.27865 165.734 3.15365 165.734 4.24219C165.734 5.35677 165.367 6.22396 164.633 6.84375C163.904 7.46354 162.88 7.77344 161.562 7.77344H159.211ZM159.211 6.1875H161.586C162.289 6.1875 162.826 6.02344 163.195 5.69531C163.565 5.36198 163.75 4.88281 163.75 4.25781C163.75 3.64323 163.562 3.15365 163.188 2.78906C162.812 2.41927 162.297 2.22917 161.641 2.21875H159.211V6.1875ZM171.871 5.28125C171.621 5.23958 171.363 5.21875 171.098 5.21875C170.228 5.21875 169.642 5.55208 169.34 6.21875V12H167.441V3.54688H169.254L169.301 4.49219C169.759 3.75781 170.394 3.39062 171.207 3.39062C171.478 3.39062 171.702 3.42708 171.879 3.5L171.871 5.28125ZM175.25 12H173.351V3.54688H175.25V12ZM173.234 1.35156C173.234 1.0599 173.325 0.817708 173.508 0.625C173.695 0.432292 173.961 0.335938 174.304 0.335938C174.648 0.335938 174.914 0.432292 175.101 0.625C175.289 0.817708 175.383 1.0599 175.383 1.35156C175.383 1.63802 175.289 1.8776 175.101 2.07031C174.914 2.25781 174.648 2.35156 174.304 2.35156C173.961 2.35156 173.695 2.25781 173.508 2.07031C173.325 1.8776 173.234 1.63802 173.234 1.35156ZM180.957 10.6406C181.431 10.6406 181.824 10.5026 182.136 10.2266C182.449 9.95052 182.615 9.60938 182.636 9.20312H184.425C184.404 9.72917 184.24 10.2214 183.933 10.6797C183.626 11.1328 183.209 11.4922 182.683 11.7578C182.157 12.0234 181.589 12.1562 180.98 12.1562C179.798 12.1562 178.86 11.7734 178.167 11.0078C177.475 10.2422 177.128 9.1849 177.128 7.83594V7.64062C177.128 6.35417 177.472 5.32552 178.16 4.55469C178.847 3.77865 179.785 3.39062 180.972 3.39062C181.977 3.39062 182.795 3.6849 183.425 4.27344C184.061 4.85677 184.394 5.625 184.425 6.57812H182.636C182.615 6.09375 182.449 5.69531 182.136 5.38281C181.829 5.07031 181.436 4.91406 180.957 4.91406C180.342 4.91406 179.868 5.13802 179.535 5.58594C179.201 6.02865 179.032 6.70312 179.027 7.60938V7.91406C179.027 8.83073 179.191 9.51562 179.519 9.96875C179.852 10.4167 180.332 10.6406 180.957 10.6406ZM188.038 12H186.14V3.54688H188.038V12ZM186.023 1.35156C186.023 1.0599 186.114 0.817708 186.296 0.625C186.484 0.432292 186.749 0.335938 187.093 0.335938C187.437 0.335938 187.702 0.432292 187.89 0.625C188.077 0.817708 188.171 1.0599 188.171 1.35156C188.171 1.63802 188.077 1.8776 187.89 2.07031C187.702 2.25781 187.437 2.35156 187.093 2.35156C186.749 2.35156 186.484 2.25781 186.296 2.07031C186.114 1.8776 186.023 1.63802 186.023 1.35156ZM192.034 3.54688L192.089 4.52344C192.714 3.76823 193.534 3.39062 194.55 3.39062C196.31 3.39062 197.206 4.39844 197.238 6.41406V12H195.339V6.52344C195.339 5.98698 195.222 5.59115 194.988 5.33594C194.758 5.07552 194.381 4.94531 193.855 4.94531C193.089 4.94531 192.519 5.29167 192.144 5.98438V12H190.245V3.54688H192.034ZM199.007 7.71094C199.007 6.39844 199.314 5.35156 199.929 4.57031C200.549 3.78385 201.369 3.39062 202.39 3.39062C203.353 3.39062 204.111 3.72656 204.663 4.39844L204.749 3.54688H206.46V11.7422C206.46 12.8516 206.114 13.7266 205.421 14.3672C204.733 15.0078 203.804 15.3281 202.632 15.3281C202.012 15.3281 201.405 15.1979 200.812 14.9375C200.223 14.6823 199.775 14.3464 199.468 13.9297L200.366 12.7891C200.95 13.4818 201.668 13.8281 202.523 13.8281C203.153 13.8281 203.65 13.6562 204.015 13.3125C204.379 12.974 204.562 12.474 204.562 11.8125V11.2422C204.015 11.8516 203.286 12.1562 202.374 12.1562C201.384 12.1562 200.575 11.763 199.944 10.9766C199.319 10.1901 199.007 9.10156 199.007 7.71094ZM200.898 7.875C200.898 8.72396 201.069 9.39323 201.413 9.88281C201.762 10.3672 202.244 10.6094 202.858 10.6094C203.624 10.6094 204.192 10.2812 204.562 9.625V5.90625C204.202 5.26562 203.64 4.94531 202.874 4.94531C202.249 4.94531 201.762 5.19271 201.413 5.6875C201.069 6.18229 200.898 6.91146 200.898 7.875ZM220.124 7.85938C220.124 9.16667 219.827 10.2109 219.233 10.9922C218.639 11.7682 217.842 12.1562 216.842 12.1562C215.915 12.1562 215.173 11.8516 214.616 11.2422V15.25H212.717V3.54688H214.467L214.546 4.40625C215.103 3.72917 215.861 3.39062 216.819 3.39062C217.85 3.39062 218.658 3.77604 219.241 4.54688C219.829 5.3125 220.124 6.3776 220.124 7.74219V7.85938ZM218.233 7.69531C218.233 6.85156 218.064 6.18229 217.725 5.6875C217.392 5.19271 216.913 4.94531 216.288 4.94531C215.512 4.94531 214.954 5.26562 214.616 5.90625V9.65625C214.96 10.3125 215.522 10.6406 216.303 10.6406C216.908 10.6406 217.379 10.3984 217.717 9.91406C218.061 9.42448 218.233 8.6849 218.233 7.69531ZM223.917 12H222.018V0H223.917V12ZM231.202 12C231.118 11.8385 231.045 11.5755 230.983 11.2109C230.379 11.8411 229.639 12.1562 228.764 12.1562C227.915 12.1562 227.222 11.9141 226.686 11.4297C226.149 10.9453 225.881 10.3464 225.881 9.63281C225.881 8.73177 226.215 8.04167 226.881 7.5625C227.553 7.07812 228.511 6.83594 229.756 6.83594H230.92V6.28125C230.92 5.84375 230.798 5.49479 230.553 5.23438C230.308 4.96875 229.936 4.83594 229.436 4.83594C229.004 4.83594 228.649 4.94531 228.373 5.16406C228.097 5.3776 227.959 5.65104 227.959 5.98438H226.061C226.061 5.52083 226.215 5.08854 226.522 4.6875C226.829 4.28125 227.246 3.96354 227.772 3.73438C228.303 3.50521 228.894 3.39062 229.545 3.39062C230.535 3.39062 231.324 3.64062 231.913 4.14062C232.501 4.63542 232.803 5.33333 232.819 6.23438V10.0469C232.819 10.8073 232.926 11.4141 233.139 11.8672V12H231.202ZM229.116 10.6328C229.491 10.6328 229.842 10.5417 230.17 10.3594C230.504 10.1771 230.754 9.93229 230.92 9.625V8.03125H229.897C229.194 8.03125 228.665 8.15365 228.311 8.39844C227.957 8.64323 227.78 8.98958 227.78 9.4375C227.78 9.80208 227.899 10.0938 228.139 10.3125C228.384 10.526 228.709 10.6328 229.116 10.6328ZM236.729 3.54688L236.783 4.52344C237.408 3.76823 238.229 3.39062 239.244 3.39062C241.005 3.39062 241.901 4.39844 241.932 6.41406V12H240.033V6.52344C240.033 5.98698 239.916 5.59115 239.682 5.33594C239.453 5.07552 239.075 4.94531 238.549 4.94531C237.783 4.94531 237.213 5.29167 236.838 5.98438V12H234.94V3.54688H236.729ZM248.772 9.70312C248.772 9.36458 248.631 9.10677 248.35 8.92969C248.074 8.7526 247.613 8.59635 246.967 8.46094C246.321 8.32552 245.782 8.15365 245.35 7.94531C244.402 7.48698 243.928 6.82292 243.928 5.95312C243.928 5.22396 244.235 4.61458 244.85 4.125C245.464 3.63542 246.246 3.39062 247.193 3.39062C248.204 3.39062 249.019 3.64062 249.639 4.14062C250.264 4.64062 250.576 5.28906 250.576 6.08594H248.678C248.678 5.72135 248.542 5.41927 248.272 5.17969C248.001 4.9349 247.641 4.8125 247.193 4.8125C246.777 4.8125 246.436 4.90885 246.17 5.10156C245.91 5.29427 245.779 5.55208 245.779 5.875C245.779 6.16667 245.902 6.39323 246.147 6.55469C246.391 6.71615 246.886 6.88021 247.631 7.04688C248.376 7.20833 248.959 7.40365 249.381 7.63281C249.808 7.85677 250.123 8.1276 250.326 8.44531C250.535 8.76302 250.639 9.14844 250.639 9.60156C250.639 10.362 250.324 10.9792 249.693 11.4531C249.063 11.9219 248.238 12.1562 247.217 12.1562C246.524 12.1562 245.907 12.0312 245.365 11.7812C244.824 11.5312 244.402 11.1875 244.1 10.75C243.798 10.3125 243.647 9.84115 243.647 9.33594H245.49C245.516 9.78385 245.686 10.1302 245.998 10.375C246.311 10.6146 246.725 10.7344 247.24 10.7344C247.74 10.7344 248.121 10.6406 248.381 10.4531C248.641 10.2604 248.772 10.0104 248.772 9.70312ZM283.63 7.77344V12H281.653V0.625H286.005C287.276 0.625 288.283 0.955729 289.028 1.61719C289.778 2.27865 290.153 3.15365 290.153 4.24219C290.153 5.35677 289.786 6.22396 289.052 6.84375C288.322 7.46354 287.299 7.77344 285.981 7.77344H283.63ZM283.63 6.1875H286.005C286.708 6.1875 287.244 6.02344 287.614 5.69531C287.984 5.36198 288.169 4.88281 288.169 4.25781C288.169 3.64323 287.981 3.15365 287.606 2.78906C287.231 2.41927 286.716 2.22917 286.059 2.21875H283.63V6.1875ZM296.29 5.28125C296.04 5.23958 295.782 5.21875 295.516 5.21875C294.646 5.21875 294.061 5.55208 293.758 6.21875V12H291.86V3.54688H293.672L293.719 4.49219C294.178 3.75781 294.813 3.39062 295.626 3.39062C295.896 3.39062 296.12 3.42708 296.297 3.5L296.29 5.28125ZM299.668 12H297.77V3.54688H299.668V12ZM297.653 1.35156C297.653 1.0599 297.744 0.817708 297.926 0.625C298.114 0.432292 298.379 0.335938 298.723 0.335938C299.067 0.335938 299.332 0.432292 299.52 0.625C299.707 0.817708 299.801 1.0599 299.801 1.35156C299.801 1.63802 299.707 1.8776 299.52 2.07031C299.332 2.25781 299.067 2.35156 298.723 2.35156C298.379 2.35156 298.114 2.25781 297.926 2.07031C297.744 1.8776 297.653 1.63802 297.653 1.35156ZM304.883 9.59375L306.672 3.54688H308.633L305.703 12H304.055L301.102 3.54688H303.071L304.883 9.59375ZM314.91 12C314.827 11.8385 314.754 11.5755 314.692 11.2109C314.087 11.8411 313.348 12.1562 312.473 12.1562C311.624 12.1562 310.931 11.9141 310.395 11.4297C309.858 10.9453 309.59 10.3464 309.59 9.63281C309.59 8.73177 309.923 8.04167 310.59 7.5625C311.262 7.07812 312.22 6.83594 313.465 6.83594H314.629V6.28125C314.629 5.84375 314.507 5.49479 314.262 5.23438C314.017 4.96875 313.645 4.83594 313.145 4.83594C312.712 4.83594 312.358 4.94531 312.082 5.16406C311.806 5.3776 311.668 5.65104 311.668 5.98438H309.77C309.77 5.52083 309.923 5.08854 310.231 4.6875C310.538 4.28125 310.955 3.96354 311.481 3.73438C312.012 3.50521 312.603 3.39062 313.254 3.39062C314.244 3.39062 315.033 3.64062 315.621 4.14062C316.21 4.63542 316.512 5.33333 316.527 6.23438V10.0469C316.527 10.8073 316.634 11.4141 316.848 11.8672V12H314.91ZM312.824 10.6328C313.199 10.6328 313.551 10.5417 313.879 10.3594C314.212 10.1771 314.462 9.93229 314.629 9.625V8.03125H313.606C312.902 8.03125 312.374 8.15365 312.02 8.39844C311.666 8.64323 311.488 8.98958 311.488 9.4375C311.488 9.80208 311.608 10.0938 311.848 10.3125C312.093 10.526 312.418 10.6328 312.824 10.6328ZM322.148 10.6406C322.622 10.6406 323.016 10.5026 323.328 10.2266C323.641 9.95052 323.807 9.60938 323.828 9.20312H325.617C325.596 9.72917 325.432 10.2214 325.125 10.6797C324.818 11.1328 324.401 11.4922 323.875 11.7578C323.349 12.0234 322.781 12.1562 322.172 12.1562C320.99 12.1562 320.052 11.7734 319.359 11.0078C318.667 10.2422 318.32 9.1849 318.32 7.83594V7.64062C318.32 6.35417 318.664 5.32552 319.352 4.55469C320.039 3.77865 320.977 3.39062 322.164 3.39062C323.169 3.39062 323.987 3.6849 324.617 4.27344C325.253 4.85677 325.586 5.625 325.617 6.57812H323.828C323.807 6.09375 323.641 5.69531 323.328 5.38281C323.021 5.07031 322.628 4.91406 322.148 4.91406C321.534 4.91406 321.06 5.13802 320.727 5.58594C320.393 6.02865 320.224 6.70312 320.219 7.60938V7.91406C320.219 8.83073 320.383 9.51562 320.711 9.96875C321.044 10.4167 321.523 10.6406 322.148 10.6406ZM330.168 9.28125L331.887 3.54688H333.91L330.551 13.2812C330.035 14.7031 329.16 15.4141 327.926 15.4141C327.65 15.4141 327.345 15.3672 327.012 15.2734V13.8047L327.371 13.8281C327.85 13.8281 328.209 13.7396 328.449 13.5625C328.694 13.3906 328.887 13.099 329.027 12.6875L329.301 11.9609L326.332 3.54688H328.379L330.168 9.28125ZM368.897 8.29688C368.783 9.51042 368.335 10.4583 367.553 11.1406C366.772 11.8177 365.733 12.1562 364.436 12.1562C363.53 12.1562 362.731 11.9427 362.038 11.5156C361.35 11.0833 360.819 10.4714 360.444 9.67969C360.069 8.88802 359.874 7.96875 359.858 6.92188V5.85938C359.858 4.78646 360.048 3.84115 360.428 3.02344C360.809 2.20573 361.353 1.57552 362.061 1.13281C362.775 0.690104 363.598 0.46875 364.53 0.46875C365.785 0.46875 366.796 0.809896 367.561 1.49219C368.327 2.17448 368.772 3.13802 368.897 4.38281H366.928C366.835 3.5651 366.595 2.97656 366.21 2.61719C365.829 2.2526 365.27 2.07031 364.53 2.07031C363.671 2.07031 363.009 2.38542 362.546 3.01562C362.087 3.64062 361.853 4.5599 361.842 5.77344V6.78125C361.842 8.01042 362.061 8.94792 362.499 9.59375C362.941 10.2396 363.587 10.5625 364.436 10.5625C365.212 10.5625 365.796 10.388 366.186 10.0391C366.577 9.6901 366.824 9.10938 366.928 8.29688H368.897ZM370.292 7.69531C370.292 6.86719 370.456 6.1224 370.784 5.46094C371.112 4.79427 371.573 4.28385 372.167 3.92969C372.76 3.57031 373.443 3.39062 374.213 3.39062C375.354 3.39062 376.279 3.75781 376.987 4.49219C377.7 5.22656 378.086 6.20052 378.143 7.41406L378.151 7.85938C378.151 8.69271 377.989 9.4375 377.667 10.0938C377.349 10.75 376.891 11.2578 376.292 11.6172C375.698 11.9766 375.01 12.1562 374.229 12.1562C373.036 12.1562 372.081 11.7604 371.362 10.9688C370.648 10.1719 370.292 9.11198 370.292 7.78906V7.69531ZM372.19 7.85938C372.19 8.72917 372.37 9.41146 372.729 9.90625C373.088 10.3958 373.588 10.6406 374.229 10.6406C374.87 10.6406 375.367 10.3906 375.721 9.89062C376.081 9.39062 376.26 8.65885 376.26 7.69531C376.26 6.84115 376.075 6.16406 375.706 5.66406C375.341 5.16406 374.844 4.91406 374.213 4.91406C373.594 4.91406 373.101 5.16146 372.737 5.65625C372.372 6.14583 372.19 6.88021 372.19 7.85938ZM381.678 3.54688L381.733 4.52344C382.358 3.76823 383.178 3.39062 384.194 3.39062C385.954 3.39062 386.85 4.39844 386.881 6.41406V12H384.983V6.52344C384.983 5.98698 384.866 5.59115 384.631 5.33594C384.402 5.07552 384.024 4.94531 383.498 4.94531C382.733 4.94531 382.163 5.29167 381.788 5.98438V12H379.889V3.54688H381.678ZM391.362 1.49219V3.54688H392.854V4.95312H391.362V9.67188C391.362 9.99479 391.424 10.2292 391.549 10.375C391.679 10.5156 391.908 10.5859 392.237 10.5859C392.455 10.5859 392.677 10.5599 392.901 10.5078V11.9766C392.468 12.0964 392.052 12.1562 391.651 12.1562C390.192 12.1562 389.463 11.3516 389.463 9.74219V4.95312H388.073V3.54688H389.463V1.49219H391.362ZM399.522 12C399.438 11.8385 399.365 11.5755 399.303 11.2109C398.699 11.8411 397.959 12.1562 397.084 12.1562C396.235 12.1562 395.542 11.9141 395.006 11.4297C394.469 10.9453 394.201 10.3464 394.201 9.63281C394.201 8.73177 394.535 8.04167 395.201 7.5625C395.873 7.07812 396.831 6.83594 398.076 6.83594H399.24V6.28125C399.24 5.84375 399.118 5.49479 398.873 5.23438C398.628 4.96875 398.256 4.83594 397.756 4.83594C397.324 4.83594 396.969 4.94531 396.693 5.16406C396.417 5.3776 396.279 5.65104 396.279 5.98438H394.381C394.381 5.52083 394.535 5.08854 394.842 4.6875C395.149 4.28125 395.566 3.96354 396.092 3.73438C396.623 3.50521 397.214 3.39062 397.865 3.39062C398.855 3.39062 399.644 3.64062 400.233 4.14062C400.821 4.63542 401.123 5.33333 401.139 6.23438V10.0469C401.139 10.8073 401.246 11.4141 401.459 11.8672V12H399.522ZM397.436 10.6328C397.811 10.6328 398.162 10.5417 398.49 10.3594C398.824 10.1771 399.074 9.93229 399.24 9.625V8.03125H398.217C397.514 8.03125 396.985 8.15365 396.631 8.39844C396.277 8.64323 396.1 8.98958 396.1 9.4375C396.1 9.80208 396.219 10.0938 396.459 10.3125C396.704 10.526 397.029 10.6328 397.436 10.6328ZM406.76 10.6406C407.234 10.6406 407.627 10.5026 407.939 10.2266C408.252 9.95052 408.419 9.60938 408.439 9.20312H410.228C410.208 9.72917 410.044 10.2214 409.736 10.6797C409.429 11.1328 409.012 11.4922 408.486 11.7578C407.96 12.0234 407.392 12.1562 406.783 12.1562C405.601 12.1562 404.663 11.7734 403.971 11.0078C403.278 10.2422 402.932 9.1849 402.932 7.83594V7.64062C402.932 6.35417 403.275 5.32552 403.963 4.55469C404.65 3.77865 405.588 3.39062 406.775 3.39062C407.781 3.39062 408.598 3.6849 409.228 4.27344C409.864 4.85677 410.197 5.625 410.228 6.57812H408.439C408.419 6.09375 408.252 5.69531 407.939 5.38281C407.632 5.07031 407.239 4.91406 406.76 4.91406C406.145 4.91406 405.671 5.13802 405.338 5.58594C405.004 6.02865 404.835 6.70312 404.83 7.60938V7.91406C404.83 8.83073 404.994 9.51562 405.322 9.96875C405.656 10.4167 406.135 10.6406 406.76 10.6406ZM414.201 1.49219V3.54688H415.693V4.95312H414.201V9.67188C414.201 9.99479 414.263 10.2292 414.388 10.375C414.519 10.5156 414.748 10.5859 415.076 10.5859C415.295 10.5859 415.516 10.5599 415.74 10.5078V11.9766C415.308 12.0964 414.891 12.1562 414.49 12.1562C413.032 12.1562 412.302 11.3516 412.302 9.74219V4.95312H410.912V3.54688H412.302V1.49219H414.201ZM426.576 11.1719C426.018 11.8281 425.227 12.1562 424.201 12.1562C423.284 12.1562 422.589 11.888 422.115 11.3516C421.646 10.8151 421.412 10.0391 421.412 9.02344V3.54688H423.31V9C423.31 10.0729 423.755 10.6094 424.646 10.6094C425.568 10.6094 426.19 10.2786 426.513 9.61719V3.54688H428.412V12H426.622L426.576 11.1719ZM435.243 9.70312C435.243 9.36458 435.103 9.10677 434.822 8.92969C434.546 8.7526 434.085 8.59635 433.439 8.46094C432.793 8.32552 432.254 8.15365 431.822 7.94531C430.874 7.48698 430.4 6.82292 430.4 5.95312C430.4 5.22396 430.707 4.61458 431.322 4.125C431.936 3.63542 432.717 3.39062 433.665 3.39062C434.676 3.39062 435.491 3.64062 436.111 4.14062C436.736 4.64062 437.048 5.28906 437.048 6.08594H435.15C435.15 5.72135 435.014 5.41927 434.743 5.17969C434.473 4.9349 434.113 4.8125 433.665 4.8125C433.249 4.8125 432.908 4.90885 432.642 5.10156C432.381 5.29427 432.251 5.55208 432.251 5.875C432.251 6.16667 432.374 6.39323 432.618 6.55469C432.863 6.71615 433.358 6.88021 434.103 7.04688C434.848 7.20833 435.431 7.40365 435.853 7.63281C436.28 7.85677 436.595 8.1276 436.798 8.44531C437.006 8.76302 437.111 9.14844 437.111 9.60156C437.111 10.362 436.796 10.9792 436.165 11.4531C435.535 11.9219 434.71 12.1562 433.689 12.1562C432.996 12.1562 432.379 12.0312 431.837 11.7812C431.296 11.5312 430.874 11.1875 430.572 10.75C430.269 10.3125 430.118 9.84115 430.118 9.33594H431.962C431.988 9.78385 432.158 10.1302 432.47 10.375C432.783 10.6146 433.197 10.7344 433.712 10.7344C434.212 10.7344 434.592 10.6406 434.853 10.4531C435.113 10.2604 435.243 10.0104 435.243 9.70312Z" fill="#696969"/>
</svg>
