<svg width="140" height="24" viewBox="0 0 140 24" fill="none" xmlns="http://www.w3.org/2000/svg">
<path d="M8.449 4.542V6.208H3.23L2.924 9.319H2.958C3.502 8.71833 4.26133 8.418 5.236 8.418C6.36933 8.418 7.28167 8.76933 7.973 9.472C8.66433 10.1633 9.01 11.0757 9.01 12.209C9.01 13.433 8.62467 14.4133 7.854 15.15C7.08333 15.8867 6.06333 16.255 4.794 16.255C3.604 16.255 2.652 15.9547 1.938 15.354C1.23533 14.7533 0.884 13.9373 0.884 12.906H2.907C2.91833 13.4273 3.09967 13.8353 3.451 14.13C3.81367 14.4247 4.26133 14.572 4.794 14.572C5.46267 14.572 5.984 14.3737 6.358 13.977C6.732 13.5803 6.919 13.0193 6.919 12.294C6.919 11.58 6.732 11.0303 6.358 10.645C5.99533 10.2483 5.49667 10.05 4.862 10.05C3.83067 10.05 3.196 10.5203 2.958 11.461L0.969 11.325L1.615 4.542H8.449ZM13.0569 13.586V16H10.8129V13.586H13.0569ZM15.6951 5.834C16.4545 4.80267 17.5368 4.287 18.9421 4.287C20.3475 4.287 21.4241 4.80267 22.1721 5.834C22.9201 6.86533 23.2941 8.34433 23.2941 10.271C23.2941 12.1977 22.9201 13.6767 22.1721 14.708C21.4241 15.7393 20.3475 16.255 18.9421 16.255C17.5368 16.255 16.4545 15.7393 15.6951 14.708C14.9471 13.6767 14.5731 12.1977 14.5731 10.271C14.5731 8.34433 14.9471 6.86533 15.6951 5.834ZM18.9421 6.004C18.2055 6.004 17.6388 6.37233 17.2421 7.109C16.8568 7.83433 16.6641 8.88833 16.6641 10.271C16.6641 11.6537 16.8568 12.719 17.2421 13.467C17.6388 14.2037 18.2055 14.572 18.9421 14.572C19.6675 14.572 20.2228 14.2037 20.6081 13.467C21.0048 12.719 21.2031 11.6537 21.2031 10.271C21.2031 8.88833 21.0048 7.83433 20.6081 7.109C20.2228 6.37233 19.6675 6.004 18.9421 6.004Z" fill="#F5AD0D"/>
<g clip-path="url(#clip0_1_639)">
<path d="M54.977 8.16456C54.9219 7.99484 54.7753 7.87116 54.5987 7.84553L49.6386 7.12475L47.4203 2.63018C47.3414 2.47018 47.1784 2.3689 47 2.3689C46.8216 2.3689 46.6587 2.47018 46.5797 2.63018L44.3613 7.12475L39.4013 7.84553C39.2248 7.87116 39.0781 7.99484 39.023 8.16453C38.9678 8.33425 39.0138 8.52053 39.1416 8.64506L42.7306 12.1436L41.8835 17.0837C41.8533 17.2596 41.9256 17.4372 42.0699 17.5422C42.1516 17.6015 42.2483 17.6317 42.3455 17.6317C42.4201 17.6317 42.495 17.6139 42.5635 17.5778L47 15.2454L51.4363 17.5778C51.5942 17.6608 51.7856 17.647 51.9299 17.5421C52.0743 17.4372 52.1466 17.2595 52.1164 17.0836L51.269 12.1436L54.8584 8.64503C54.9862 8.52053 55.0322 8.33425 54.977 8.16456Z" fill="#F5AD0D"/>
</g>
<g clip-path="url(#clip1_1_639)">
<path d="M75.977 8.16456C75.9219 7.99484 75.7753 7.87116 75.5987 7.84553L70.6386 7.12475L68.4203 2.63018C68.3414 2.47018 68.1784 2.3689 68 2.3689C67.8216 2.3689 67.6587 2.47018 67.5797 2.63018L65.3613 7.12475L60.4013 7.84553C60.2248 7.87116 60.0781 7.99484 60.023 8.16453C59.9678 8.33425 60.0138 8.52053 60.1416 8.64506L63.7306 12.1436L62.8835 17.0837C62.8533 17.2596 62.9256 17.4372 63.0699 17.5422C63.1516 17.6015 63.2483 17.6317 63.3455 17.6317C63.4201 17.6317 63.495 17.6139 63.5635 17.5778L68 15.2454L72.4363 17.5778C72.5942 17.6608 72.7856 17.647 72.9299 17.5421C73.0743 17.4372 73.1466 17.2595 73.1164 17.0836L72.269 12.1436L75.8584 8.64503C75.9862 8.52053 76.0322 8.33425 75.977 8.16456Z" fill="#F5AD0D"/>
</g>
<g clip-path="url(#clip2_1_639)">
<path d="M97.977 8.16456C97.9219 7.99484 97.7753 7.87116 97.5987 7.84553L92.6386 7.12475L90.4203 2.63018C90.3414 2.47018 90.1784 2.3689 90 2.3689C89.8216 2.3689 89.6587 2.47018 89.5797 2.63018L87.3613 7.12475L82.4013 7.84553C82.2248 7.87116 82.0781 7.99484 82.023 8.16453C81.9678 8.33425 82.0138 8.52053 82.1416 8.64506L85.7306 12.1436L84.8835 17.0837C84.8533 17.2596 84.9256 17.4372 85.0699 17.5422C85.1516 17.6015 85.2483 17.6317 85.3455 17.6317C85.4201 17.6317 85.495 17.6139 85.5635 17.5778L90 15.2454L94.4363 17.5778C94.5942 17.6608 94.7856 17.647 94.9299 17.5421C95.0743 17.4372 95.1466 17.2595 95.1164 17.0836L94.269 12.1436L97.8584 8.64503C97.9862 8.52053 98.0322 8.33425 97.977 8.16456Z" fill="#F5AD0D"/>
</g>
<g clip-path="url(#clip3_1_639)">
<path d="M118.977 8.16456C118.922 7.99484 118.775 7.87116 118.599 7.84553L113.639 7.12475L111.42 2.63018C111.341 2.47018 111.178 2.3689 111 2.3689C110.822 2.3689 110.659 2.47018 110.58 2.63018L108.361 7.12475L103.401 7.84553C103.225 7.87116 103.078 7.99484 103.023 8.16453C102.968 8.33425 103.014 8.52053 103.142 8.64506L106.731 12.1436L105.883 17.0837C105.853 17.2596 105.926 17.4372 106.07 17.5422C106.152 17.6015 106.248 17.6317 106.345 17.6317C106.42 17.6317 106.495 17.6139 106.564 17.5778L111 15.2454L115.436 17.5778C115.594 17.6608 115.786 17.647 115.93 17.5421C116.074 17.4372 116.147 17.2595 116.116 17.0836L115.269 12.1436L118.858 8.64503C118.986 8.52053 119.032 8.33425 118.977 8.16456Z" fill="#F5AD0D"/>
</g>
<g clip-path="url(#clip4_1_639)">
<path d="M139.977 8.16456C139.922 7.99484 139.775 7.87116 139.599 7.84553L134.639 7.12475L132.42 2.63018C132.341 2.47018 132.178 2.3689 132 2.3689C131.822 2.3689 131.659 2.47018 131.58 2.63018L129.361 7.12475L124.401 7.84553C124.225 7.87116 124.078 7.99484 124.023 8.16453C123.968 8.33425 124.014 8.52053 124.142 8.64506L127.731 12.1436L126.883 17.0837C126.853 17.2596 126.926 17.4372 127.07 17.5422C127.152 17.6015 127.248 17.6317 127.345 17.6317C127.42 17.6317 127.495 17.6139 127.564 17.5778L132 15.2454L136.436 17.5778C136.594 17.6608 136.786 17.647 136.93 17.5421C137.074 17.4372 137.147 17.2595 137.116 17.0836L136.269 12.1436L139.858 8.64503C139.986 8.52053 140.032 8.33425 139.977 8.16456Z" fill="#F5AD0D"/>
</g>
<defs>
<clipPath id="clip0_1_639">
<rect width="16" height="16" fill="white" transform="translate(39 2)"/>
</clipPath>
<clipPath id="clip1_1_639">
<rect width="16" height="16" fill="white" transform="translate(60 2)"/>
</clipPath>
<clipPath id="clip2_1_639">
<rect width="16" height="16" fill="white" transform="translate(82 2)"/>
</clipPath>
<clipPath id="clip3_1_639">
<rect width="16" height="16" fill="white" transform="translate(103 2)"/>
</clipPath>
<clipPath id="clip4_1_639">
<rect width="16" height="16" fill="white" transform="translate(124 2)"/>
</clipPath>
</defs>
</svg>
