<svg width="16" height="16" viewBox="0 0 16 16" fill="none" xmlns="http://www.w3.org/2000/svg">
<g clip-path="url(#clip0_1_733)">
<path d="M9.70663 13.6262L14.9576 8.07261C15.1073 7.91421 15.1862 7.70627 15.1799 7.48268C15.1738 7.26348 15.0834 7.0604 14.925 6.91063L9.37143 1.65956C9.04325 1.34937 8.52366 1.36393 8.2136 1.69199L7.7366 2.19623C7.58695 2.35463 7.508 2.56257 7.51414 2.7819C7.52028 3.0011 7.61095 3.21136 7.76922 3.36101L11.0095 6.43137L0.996234 6.71185C0.544928 6.72449 0.186652 7.08825 0.199294 7.53956L0.218726 8.23331C0.231367 8.68462 0.610446 9.06354 1.06175 9.0509L11.1106 8.76942L8.01219 12.0352C7.86254 12.1935 7.78343 12.396 7.78958 12.6153C7.79572 12.8346 7.88611 13.0348 8.04439 13.1847L8.54883 13.66C8.8769 13.9703 9.39632 13.9545 9.70663 13.6262Z" fill="#00D664"/>
</g>
<defs>
<clipPath id="clip0_1_733">
<rect width="14.9763" height="14.9763" fill="white" transform="translate(14.9703) rotate(88.3955)"/>
</clipPath>
</defs>
</svg>
