<svg width="40" height="40" viewBox="0 0 40 40" fill="none" xmlns="http://www.w3.org/2000/svg">
<path d="M0 20C0 8.95431 8.95431 0 20 0C31.0457 0 40 8.95431 40 20C40 31.0457 31.0457 40 20 40C8.95431 40 0 31.0457 0 20Z" fill="#193EE9"/>
<path d="M23.0859 20.1484C23.0859 21.8411 22.7969 23.099 22.2188 23.9219C21.6406 24.7448 20.737 25.1562 19.5078 25.1562C18.2943 25.1562 17.3958 24.7552 16.8125 23.9531C16.2292 23.1458 15.9271 21.9427 15.9062 20.3438V18.4141C15.9062 16.7422 16.1953 15.5 16.7734 14.6875C17.3516 13.875 18.2578 13.4688 19.4922 13.4688C20.7161 13.4688 21.6172 13.862 22.1953 14.6484C22.7734 15.4297 23.0703 16.638 23.0859 18.2734V20.1484ZM21.6406 18.1719C21.6406 16.9479 21.4688 16.0573 21.125 15.5C20.7812 14.9375 20.237 14.6562 19.4922 14.6562C18.7526 14.6562 18.2135 14.9349 17.875 15.4922C17.5365 16.0495 17.362 16.9062 17.3516 18.0625V20.375C17.3516 21.6042 17.5286 22.513 17.8828 23.1016C18.2422 23.6849 18.7839 23.9766 19.5078 23.9766C20.2214 23.9766 20.75 23.7005 21.0938 23.1484C21.4427 22.5964 21.625 21.7266 21.6406 20.5391V18.1719Z" fill="white"/>
</svg>
