<svg width="916" height="174" viewBox="0 0 916 174" fill="none" xmlns="http://www.w3.org/2000/svg">
<path fill-rule="evenodd" clip-rule="evenodd" d="M111.896 143.271H31.226L18.4735 172.928H-23.764L51.5035 0.5H94.0247L169.05 172.928H124.648L111.896 143.271ZM46.333 108.034H96.7886L71.5608 49.2825L46.333 108.034ZM189.443 172.928V0.741108H260.684C318.1 0.741108 354.782 32.5623 354.782 86.8343C354.782 140.325 317.589 172.928 260.684 172.928H189.443ZM231.347 36.9428V136.726H259.962C291.857 136.726 312.156 117.776 312.156 86.8343C312.156 55.1193 292.339 36.9428 259.962 36.9428H231.347ZM489.075 143.271H408.405L395.652 172.928H353.415L428.682 0.5H471.204L546.229 172.928H501.827L489.075 143.271ZM423.512 108.034H473.968L448.74 49.2825L423.512 108.034ZM608.285 112.651V172.928H566.622V0.741108H666.977C706.418 0.741108 728.833 20.6282 728.833 56.4548C728.833 92.2375 706.191 112.651 666.977 112.651H608.285ZM608.285 37.425V75.9667H663.127C678.097 75.9667 685.967 69.0585 685.967 56.6959C685.967 43.736 678.513 37.425 663.127 37.425H608.285ZM850.584 37.425V172.928H808.921V37.425H744.195V0.741108H915.309V37.425H850.584Z" stroke="#14C5C4"/>
</svg>
