<svg width="918" height="181" viewBox="0 0 918 181" fill="none" xmlns="http://www.w3.org/2000/svg">
<path fill-rule="evenodd" clip-rule="evenodd" d="M92.0828 180.258C39.8723 180.258 0.992493 142.855 0.992493 91.153C0.992493 38.9781 39.6046 2.04755 92.0828 2.04755C144.355 2.04755 182.933 39.0133 182.933 91.153C182.933 142.82 144.088 180.258 92.0828 180.258ZM92.0828 142.561C120.857 142.561 140.363 120.94 140.363 91.153C140.363 61.5201 120.781 39.7452 92.0828 39.7452C63.418 39.7452 43.5626 61.521 43.5626 91.153C43.5626 120.939 63.341 142.561 92.0828 142.561ZM336.202 136.994V109.519H282.376V74.9599H376.369V156.083L376.199 156.232C370.114 161.582 360.79 167.194 349.589 171.563C334.97 177.265 318.236 180.5 299.696 180.5C241.374 180.5 203.8 144.872 203.8 90.1873C203.8 38.2951 240.739 1.32324 292.968 1.32324C317.305 1.32324 336.556 7.76274 350.741 19.1788C362.021 28.2559 369.492 40.1287 372.508 51.6732L372.672 52.2996H328.782L328.632 52.1243C321.674 43.9678 309.783 38.0552 292.968 38.0552C265.166 38.0552 246.13 59.9034 246.13 90.1873C246.13 123.098 266.655 144.251 300.658 144.251C316.555 144.251 329.527 141.246 336.202 136.994V136.994ZM451.821 39.7452V69.6485H512.615V105.173H451.821V140.871H563.077V177.361H409.972V4.94472H553.706V39.7452H451.821ZM629.158 60.2478V177.361H588.27V4.94472H635.392L715.385 108.998V4.94472H755.312V177.844H721.409L629.158 60.2478ZM857.177 35.6408C838.23 35.6408 827.88 41.2734 827.88 51.3168C827.88 60.293 835.378 65.5485 850.5 67.2368C853.899 67.587 857.113 67.8884 860.969 68.2249C861.755 68.2935 862.575 68.3643 863.497 68.4431C864.272 68.5093 868.713 68.8862 870.057 69.0014C872.718 69.2297 875.024 69.4329 877.402 69.6501C920.197 73.1005 942.5 90.2053 942.5 124.712C942.5 159.767 915.051 180.5 866.308 180.5C839.003 180.5 818.188 174.16 803.404 162.619C791.231 153.114 783.622 140.418 780.278 126.276L780.132 125.661H824.109L824.237 125.967C829.244 137.915 843.59 146.424 866.308 146.424C887.9 146.424 899.209 139.469 899.209 127.609C899.209 116.144 891.835 111.135 874.901 109.274C870.045 108.707 865.93 108.292 860.173 107.767C859.689 107.723 859.182 107.677 858.599 107.624C851.328 106.967 850.893 106.927 847.754 106.619C807.888 102.511 785.07 84.1446 785.07 53.0068C785.07 20.9286 813.283 1.80611 857.177 1.80611C883.225 1.80611 903.002 7.56197 916.949 18.0216C928.404 26.6117 935.464 38.0668 938.402 50.7207L938.545 51.3339H896.54L896.395 51.088C891.212 42.2996 877.442 35.6408 857.177 35.6408Z" stroke="#14C5C4"/>
</svg>
